<svg xmlns="http://www.w3.org/2000/svg" xmlns:xlink="http://www.w3.org/1999/xlink" version="1.2" baseProfile="tiny" x="0px" y="0px" viewBox="0 0 100 125" xml:space="preserve">
  <path d="M92.5,5h-85C6.119,5,5,6.119,5,7.5v75C5,83.881,6.119,85,7.5,85h54.123l11.816,9.452C73.9,94.821,74.451,95,74.999,95   c0.733,0,1.46-0.321,1.954-0.938c0.863-1.078,0.688-2.651-0.391-3.514l-12.5-10c-0.025-0.02-0.054-0.033-0.08-0.052   c-0.072-0.053-0.147-0.1-0.224-0.146c-0.068-0.04-0.135-0.079-0.205-0.111c-0.072-0.034-0.146-0.06-0.222-0.087   c-0.082-0.029-0.162-0.056-0.246-0.076c-0.07-0.017-0.142-0.028-0.214-0.038c-0.093-0.014-0.186-0.025-0.28-0.028   C62.56,80.008,62.531,80,62.5,80H35v-7.5c0-1.381-1.119-2.5-2.5-2.5S30,71.119,30,72.5V80H10V10h30v30h-7.5   c-1.381,0-2.5,1.119-2.5,2.5v15c0,1.381,1.119,2.5,2.5,2.5s2.5-1.119,2.5-2.5V45h22.5c1.381,0,2.5-1.119,2.5-2.5S58.881,40,57.5,40   H45V10h45v30H72.5c-1.381,0-2.5,1.119-2.5,2.5s1.119,2.5,2.5,2.5H90v35h-7.5c-1.381,0-2.5,1.119-2.5,2.5S81.12,85,82.5,85h10   c1.381,0,2.5-1.119,2.5-2.5v-75C95,6.119,93.881,5,92.5,5z" fill="black"/>
</svg>
